/* XPM */
static char *ciel[] = {
/* columns rows colors chars-per-pixel */
"128 128 77 1 ",
"  c #7B94D6",
". c #8C9CD6",
"X c #849CDE",
"o c #8CADDE",
"O c #9CADD6",
"+ c #94A5DE",
"@ c #9CADDE",
"# c #A5ADDE",
"$ c #94ADE7",
"% c #9CADE7",
"& c #9CB5E7",
"* c #94B5EF",
"= c #9CB5EF",
"- c #9CBDEF",
"; c #9CB5F7",
": c #9CBDF7",
"> c #A5B5E7",
", c #ADB5E7",
"< c #A5B5EF",
"1 c #ADB5EF",
"2 c #A5BDEF",
"3 c #ADBDEF",
"4 c #B5B5E7",
"5 c #B5BDE7",
"6 c #B5BDEF",
"7 c #BDBDEF",
"8 c #A5BDF7",
"9 c #ADBDF7",
"0 c #B5BDF7",
"q c #ADC6EF",
"w c #BDC6E7",
"e c #B5C6EF",
"r c #BDC6EF",
"t c #BDCEEF",
"y c #A5C6F7",
"u c #ADC6F7",
"i c #B5C6F7",
"p c #BDC6F7",
"a c #B5CEF7",
"s c #BDCEF7",
"d c #B5C6FF",
"f c #BDC6FF",
"g c #B5CEFF",
"h c #BDCEFF",
"j c #BDD6F7",
"k c #BDD6FF",
"l c #C6C6EF",
"z c #C6CEEF",
"x c #CECEEF",
"c c #C6CEF7",
"v c #CECEF7",
"b c #C6CEFF",
"n c #C6D6F7",
"m c #CED6F7",
"M c #CEDEF7",
"N c #C6D6FF",
"B c #CED6FF",
"V c #CEDEFF",
"C c #D6D6F7",
"Z c #D6DEF7",
"A c #DEDEF7",
"S c #D6D6FF",
"D c #D6DEFF",
"F c #DEDEFF",
"G c #E7DEFF",
"H c #D6E7FF",
"J c #DEE7FF",
"K c #E7E7FF",
"L c #EFE7FF",
"P c #E7EFFF",
"I c #EFEFFF",
"U c #F7EFFF",
"Y c #EFF7FF",
"T c #F7F7FF",
"R c #FFF7FF",
"E c #F7FFFF",
"W c white",
/* pixels */
"pii6e293=293<=*=&>eBe<iiiq92<33q3epnc3>2<3smne333333233iepspii6e293=293<=*=&>eBe<iiiq92<33q3epnc3>2<3smne333333233iepspii6e293=2",
"q332<<&<&<22<&>&%6FPc@22323q623elCDmceer63pBcru,232333ur36eq332<<&<&<22<&>&%6FPc@22323q623elCDmceer63pBcru,232333ur36eq332<<&<&<",
"6>2322<-=<>>&$39+cAAr%%222233>zDFKKDcrra3>snr6e2>2232>3iq6u6>2322<-=<>>&$39+cAAr%%222233>zDFKKDcrra3>snr6e2>2232>3iq6u6>2322<-=<",
"q2<<2<&=&,8&<20q,cVm3&&2>2>=&,NFFKKDle3e3>,h32232&33222>3isq2<<2<&=&,8&<20q,cVm3&&2>2>=&,NFFKKDle3e3>,h32232&33222>3isq2<<2<&=&,",
"0>&><2&&<32=&3333pscq%<2<-&&%25cDAKCe>332<$233><>=2>22>=eie0>&><2&&<32=&3333pscq%<2<-&&%25cDAKCe>332<$233><>=2>22>=eie0>&><2&&<3",
"e33<&><&=&36=&>qq>rV6+%&<2=&=>5wCFKJr@3q<&&&&>=&->2<&<&>2>6e33<&><&=&36=&>qq>rV6+%&<2=&=>5wCFKJr@3q<&&&&>=&->2<&<&>2>6e33<&><&=&",
"rse3&&2<&12q<=$=%&%sNee>%&%$>pmDFDAKv+&3><&<*<2=>-<&<2&=<33rse3&&2<&12q<=$=%&%sNee>%&%$>pmDFDAKv+&3><&<*<2=>-<&<2&=<33rse3&&2<&1",
"spie3662<<u6=$&=$3&,Nbcs,$&=3nDvKAxCPB>%<&<&&&&&&&&%2<%&,iespie3662<<u6=$&=$3&,Nbcs,$&=3nDvKAxCPB>%<&<&&&&&&&&%2<%&,iespie3662<<",
"3erpeeu3&&<$&6&+&1,3,rBSs&%<erzzCKAAPA&+->&==&=&%2=&&22&2q33erpeeu3&&<$&6&+&1,3,rBSs&%<erzzCKAAPA&+->&==&=&%2=&&22&2q33erpeeu3&&",
"6<3ii36i&$&$&sho,jwcrrcc36i@+,mKKKFUUD#@&=&&&&&$*%&>2<<<3>-6<3ii36i&$&$&sho,jwcrrcc36i@+,mKKKFUUD#@&=&&&&&$*%&>2<<<3>-6<3ii36i&$",
"2i236%>2<6>o%sm65LTJDms,+>ne&+cJUUIEWTc+*&%=&==&$$=-<%=2&*&2i236%>2<6>o%sm65LTJDms,+>ne&+cJUUIEWTc+*&%=&==&$$=-<%=2&*&2i236%>2<6",
",63>>&=&6qi36sczvIRICxxVD>>Bs@lcCUWWWL@+%*&=%&$&<2><=$>-%><,63>>&=&6qi36sczvIRICxxVD>>Bs@lcCUWWWL@+%*&=%&$&<2><=$>-%><,63>>&=&6q",
"u2%>N3%$$eVDmcc,mTRJxvFYJ3+BVc3&5ARWWv =&=%$=<2=>2<&>-&$==3u2%>N3%$$eVDmcc,mTRJxvFYJ3+BVc3&5ARWWv =&=%$=<2=>2<&>-&$==3u2%>N3%$$e",
"i3>aM0>$6pVDcnmzzITACITKB,+isb,>>zLWRtX%=&&$223=&36&=&=*&&6i3>aM0>$6pVDcnmzzITACITKB,+isb,>>zLWRtX%=&&$223=&36&=&=*&&6i3>aM0>$6p",
">,ipeie>arpmCrvDcvDKJKTIc&@>u336+>DYC@$&&%=$%39$6hu&$==%&<=>,ipeie>arpmCrvDcvDKJKTIc&@>u336+>DYC@$&&%=$%39$6hu&$==%&<=>,ipeie>ar",
"33is,3eiq6pVDmDFKmvKIKJJp%=&%6-$$,nFB@<&=%&<&-<&2h<&&<&-=&333is,3eiq6pVDmDFKmvKIKJJp%=&%6-$$,nFB@<&=%&<&-<&2h<&&<&-=&333is,3eiq6",
"iq6<33633icBJFCJIIcxDKJc@$&=&=%&>&6nVh<$=&%&=%=-<6&&==&&&<qiq6<33633icBJFCJIIcxDKJc@$&=&=%&>&6nVh<$=&%&=%=-<6&&==&&&<qiq6<33633i",
"9333<32<ip63pmGDDFnrcFKt.$=&=%=&&>&6ii&$&===&=&<&==%<&*%=<39333<32<ip63pmGDDFnrcFKt.$=&=%=&&>&6ii&$&===&=&<&==%<&*%=<39333<32<ip",
"3<2e23q63e36<eccccBe,BJDBi@%=&=&%=%%&<=&=<&&=&=%=<-=&>==&&i3<2e23q63e36<eccccBe,BJDBi@%=&=&%=%%&<=&=<&&=&=%=<-=&>==&&i3<2e23q63e",
"2&<33<i26<q3&&6>>3q35scmVN>$&=%&=<&=<%&%&=&*&<=>==<&==2,=ii2&<33<i26<q3&&6>>3q35scmVN>$&=%&=<&=<%&%&=&*&<=>==<&==2,=ii2&<33<i26<",
"3=33362i8>u6$-$=&9<<<sc3,3=&==<=&==-&===&===%$2<2q&%&&<2,333=33362i8>u6$-$=&9<<<sc3,3=&==<=&==-&===&===%$2<2q&%&&<2,333=33362i8>",
"<23qpe366s22-&&=%&<=@&ip&+&<&&=&%&&>=&&=<&&=-&&&<8<&=3i2-23<23qpe366s22-&&=%&<=@&ip&+&<&&=&%&&>=&&=<&&=-&&&<8<&=3i2-23<23qpe366s",
"&&3690e3q96<=&==&==-<%<9$==&%<3>30>3<%%2=%=&>932@&&&q333<>2&&3690e3q96<=&==&==-<%<9$==&%<3>30>3<%%2=%=&>932@&&&q333<>2&&3690e3q9",
"=2326sii>$&=&=<$=&$<=&&3<&6&iNNsss3>>3<=<&>%ucevVs3=%<=&=3<=2326sii>$&=&=<$=&$<=&&3<&6&iNNsss3>>3<=<&>%ucevVs3=%<=&=3<=2326sii>$",
"<=>=3e,i3$-%=<2=&=-&&=%<eislce,,ist6q6>&=&=i6@rcmDBe>&&=<%-<=>=3e,i3$-%=<2=&=-&&=%<eislce,,ist6q6>&=&=i6@rcmDBe>&&=<%-<=>=3e,i3$",
"=&=><e-&2-%-=&=<&%=&<=&<a0scsrcr#rBccs6@>iepu6zmmmBc3&12====&=><e-&2-%-=&=<&%=&<=&<a0scsrcr#rBccs6@>iepu6zmmmBc3&12====&=><e-&2-",
"2=>->=<=&=<<-<=&==&=ei<&6@6s,wJYcwVcmcmDmpssp&cKvxmBcpe3&=22=>->=<=&=<<-<=&==&=ei<&6@6s,wJYcwVcmcmDmpssp&cKvxmBcpe3&=22=>->=<=&=",
">383=2-2==&*<&&<=&%6ue36a,35,rFIFcv57cFJFms5,6cFJBzcshs3=,=>383=2-2==&*<&&<=&%6ue36a,35,rFIFcv57cFJFms5,6cFJBzcshs3=,=>383=2-2==",
"=3p3=&2====-====2$&8e6iescBczvwwFJre#nFFCvCcczDmCDStrsie2-3=3p3=&2====-====2$&8e6iescBczvwwFJre#nFFCvCcczDmCDStrsie2-3=3p3=&2===",
"<ia>==2==-<=<-<&$3ii=3i63tmFPKc45Vc,2mJvCKKJCmDcrBBe>6ai>=<<ia>==2==-<=<-<&$3ii=3i63tmFPKc45Vc,2mJvCKKJCmDcrBBe>6ai>=<<ia>==2==-",
"<26<&2<&-<=2====>au3&=0qcvJKTIFn0>36e6cvKTYGCCDlrcs3&<2<<==<26<&2<&-<=2====>au3&=0qcvJKTIFn0>36e6cvKTYGCCDlrcs3&<2<<==<26<&2<&-<",
"32==2<==<<*=<=&&ii<&<6q6cDDITKmc>.ijce5pJKFJFAAxrrz6=&=&23&32==2<==<<*=<=&&ii<&<6q6cDDITKmc>.ijce5pJKFJFAAxrrz6=&=&23&32==2<==<<",
"3<<32&&=<-=-=-=%9q<&uss35cFITSwpse>icbstccvFKLTILPN3%33==233<<32&&=<-=-=-=%9q<&uss35cFITSwpse>icbstccvFKLTILPN3%33==233<<32&&=<-",
"u32<2==2=%==&=<-<6=6rBp,>6JTIAFKFJce,6pe3#OvKTWWTTA53ii3>=uu32<2==2=%==&=<-<6=6rBp,>6JTIAFKFJce,6pe3#OvKTWWTTA53ii3>=uu32<2==2=%",
"2<22=<=$=<-<=&<3yq6upsse5pvFFGPKCDCc3##6ss#DTTRWWTFr3eq33=32<22=<=$=<-<=&<3yq6upsse5pvFFGPKCDCc3##6ss#DTTRWWTFr3eq33=32<22=<=$=<",
"=2-<<-<&3ss=&=-=<0y3ici3nDpcCDFJvCmFJcicmSDmKTTRTIZcai3922==2-<<-<&3ss=&=-=<0y3ici3nDpcCDFJvCmFJcicmSDmKTTRTIZcai3922==2-<<-<&3s",
"=<<-=*&3as3%=%<<-326<uie9iieevDmCJFJDDDmmnrlCIUIPDcjr132222=<<-=*&3as3%=%<<-326<uie9iieevDmCJFJDDDmmnrlCIUIPDcjr132222=<<-=*&3as",
"2-<&3<&6pece%&=62<99<&%6<6e6ivcsCFJKvDDcrcmJDFIJCm6is&$<9u<2-<&3<&6pece%&=62<99<&%6<6e6ivcsCFJKvDDcrcmJDFIJCm6is&$<9u<2-<&3<&6pe",
"<<&<3rbnrmIYD>,hg&&eu>&=63s0sce>>mDmCKJADccVccVCee6eu3=3qi2<<&<3rbnrmIYD>,hg&&eu>&=63s0sce>>mDmCKJADccVccVCee6eu3=3qi2<<&<3rbnrm",
"u3266nHDCCKTJc>i60adeusqsssspii&,smCJIITTL5>%#ecp6ai623=233u3266nHDCCKTJc>i60adeusqsssspii&,smCJIITTL5>%#ecp6ai623=233u3266nHDCC",
"ippiBZSmZJKKKB&iespepBBecvBsu<3iieSJPIUWTTm,@>sbe<ei3ui3=23ippiBZSmZJKKKB&iespepBBecvBsu<3iieSJPIUWTTm,@>sbe<ei3ui3=23ippiBZSmZJ",
"isssvDBBSKFFDmpeci66tBBrimBp3&=epsvJKITREIKkesBc6e6,&3i1$<qisssvDBBSKFFDmpeci66tBBrimBp3&=epsvJKITREIKkesBc6e6,&3i1$<qisssvDBBSK",
"2133icBZFDFmmBmpVr33hccprsbj<$=0icsvFTTLIIJlrcni6DDnpeq33=32133icBZFDFmmBmpVr33hccprsbj<$=0icsvFTTLIIJlrcni6DDnpeq33=32133icBZFD",
"2&<3eibNSVBDFJmBSBisvccsncbs=&<8e3rVFKUKFIKBreccnCDFAs33si22&<3eibNSVBDFJmBSBisvccsncbs=&<8e3rVFKUKFIKBreccnCDFAs33si22&<3eibNSV",
"9u22u6q3pBVDLJmDBmBbbjbbNbs6><&<8&6VJFTKLIIKvtvDFmcsBBsescq9u22u6q3pBVDLJmDBmBbbjbbNbs6><&<8&6VJFTKLIIKvtvDFmcsBBsescq9u22u6q3pB",
"932<29<=>hBDDBVBcspnpaisgsu<9aaa<%+BIUTTTIKJFvcnDDv56cbppsf932<29<=>hBDDBVBcspnpaisgsu<9aaa<%+BIUTTTIKJFvcnDDv56cbppsf932<29<=>h",
"a6228=8==3sbscDciai893393<3iepBi-<*sIYTTTIFFJDp6iBbee6isspsa6228=8==3sbscDciai893393<3iepBi-<*sIYTTTIFFJDp6iBbee6isspsa6228=8==3",
"iu<99=-=:38039bbu03<<=<-i3de3sDepi>>DILIKFccDFs@,s3ih33aiu0iu<99=-=:38039bbu03<<=<-i3de3sDepi>>DILIKFccDFs@,s3ih33aiu0iu<99=-=:3",
"i9838=2=38<29u<ai=9q93=69cNi6bNBFN1>cJLFFNr6vDv5ic>6sNpci6qi9838=2=38<29u<ai=9q93=69cNi6bNBFN1>cJLFFNr6vDv5ic>6sNpci6qi9838=2=38",
"9ui8=2;8=2=9a983=<<aa02<jVBpi6cFJDBccmJFJDrevDJDJD6eppNBsii9ui8=2;8=2=9a983=<<aa02<jVBpi6cFJDBccmJFJDrevDJDJD6eppNBsii9ui8=2;8=2",
"ss03=-2=-=8-9qu=322808=2pNBVr6rDFSIPCwFFLF6rVDFKIDscs6eppisss03=-2=-=8-9qu=322808=2pNBVr6rDFSIPCwFFLF6rVDFKIDscs6eppisss03=-2=-=",
"cd3<2=2=<;2282990i922=<3=hBBDDcSDJKID5DGPB56NvDFDcBmpsi3iehcd3<2=2=<;2282990i922=<3=hBBDDcSDJKID5DGPB56NvDFDcBmpsi3iehcd3<2=2=<;",
"ssq8228<222829<22y29:&-=3issNDmDDAJKASZDZKr>ecnr6wpncpsp2<issq8228<222829<22y29:&-=3issNDmDDAJKASZDZKr>ecnr6wpncpsp2<issq8228<22",
"si333239u9<-<q822==39====3i6icbMDSADMJZvSVcrcDAcsciiiiss6=3si333239u9<-<q822==39====3i6icbMDSADMJZvSVcrcDAcsciiiiss6=3si333239u9",
"ui9qu3qisu9<=-u=<=3iq3=2=23=1espcccccBmcmmcrlMJZmmc3%3qu23uui9qu3qisu9<=-u=<=3iq3=2=23=1espcccccBmcmmcrlMJZmmc3%3qu23uui9qu3qisu",
"9q3epi3iip3-2=21-33u9-<u2==2==&=322>0svmmmDMZBCcnN2$22<2<339q3epi3iip3-2=21-33u9-<u2==2==&=322>0svmmmDMZBCcnN2$22<2<339q3epi3iip",
"ie30es3eiu3=<=12&2ii<=&<92&2>21=&=>&>ssNvmmDFZrrcc<&<q6eaiiie30es3eiu3=<=12&2ii<=&<92&2>21=&=>&>ssNvmmDFZrrcc<&<q6eaiiie30es3eiu",
"i0qeie3-123=-2=2%29s3223-22<-23=<qu0=%6mccDDmBptspt3<iaistpi0qeie3-123=-2=2%29s3223-22<-23=<qu0=%6mccDDmBptspt3<iaistpi0qeie3-12",
"ee36a33<=233>==&2<3363e23uq=<3u&2u32<&>ucnvczcnvpssi>3seepsee36a33<=233>==&2<3363e23uq=<3u&2u32<&>ucnvczcnvpssi>3seepsee36a33<=2",
"ieiqis2&32392=%==2-2qiieiq<&<2223i3=&&*>pipescssrcr63qipptpieiqis2&32392=%==2-2qiieiq<&<2223i3=&&*>pipescssrcr63qipptpieiqis2&32",
"sp66sr3<3e922&&&=&>3iei333=>32363qe<>=&<2rtpcs5eieq933eeeptsp66sr3<3e922&&&=&>3iei333=>32363qe<>=&<2rtpcs5eieq933eeeptsp66sr3<3e",
"speape332eq6&=&<&=&263ep333<>33pq3ee3&$$$6pnpeie6333,26qieispeape332eq6&=&<&=&263ep333<>33pq3ee3&$$$6pnpeie6333,26qieispeape332e",
"pii6e293=293<=*=&>eBe<iiiq92<33q3epnc3>2<3smne333333233iepspii6e293=293<=*=&>eBe<iiiq92<33q3epnc3>2<3smne333333233iepspii6e293=2",
"q332<<&<&<22<&>&%6FPc@22323q623elCDmceer63pBcru,232333ur36eq332<<&<&<22<&>&%6FPc@22323q623elCDmceer63pBcru,232333ur36eq332<<&<&<",
"6>2322<-=<>>&$39+cAAr%%222233>zDFKKDcrra3>snr6e2>2232>3iq6u6>2322<-=<>>&$39+cAAr%%222233>zDFKKDcrra3>snr6e2>2232>3iq6u6>2322<-=<",
"q2<<2<&=&,8&<20q,cVm3&&2>2>=&,NFFKKDle3e3>,h32232&33222>3isq2<<2<&=&,8&<20q,cVm3&&2>2>=&,NFFKKDle3e3>,h32232&33222>3isq2<<2<&=&,",
"0>&><2&&<32=&3333pscq%<2<-&&%25cDAKCe>332<$233><>=2>22>=eie0>&><2&&<32=&3333pscq%<2<-&&%25cDAKCe>332<$233><>=2>22>=eie0>&><2&&<3",
"e33<&><&=&36=&>qq>rV6+%&<2=&=>5wCFKJr@3q<&&&&>=&->2<&<&>2>6e33<&><&=&36=&>qq>rV6+%&<2=&=>5wCFKJr@3q<&&&&>=&->2<&<&>2>6e33<&><&=&",
"rse3&&2<&12q<=$=%&%sNee>%&%$>pmDFDAKv+&3><&<*<2=>-<&<2&=<33rse3&&2<&12q<=$=%&%sNee>%&%$>pmDFDAKv+&3><&<*<2=>-<&<2&=<33rse3&&2<&1",
"spie3662<<u6=$&=$3&,Nbcs,$&=3nDvKAxCPB>%<&<&&&&&&&&%2<%&,iespie3662<<u6=$&=$3&,Nbcs,$&=3nDvKAxCPB>%<&<&&&&&&&&%2<%&,iespie3662<<",
"3erpeeu3&&<$&6&+&1,3,rBSs&%<erzzCKAAPA&+->&==&=&%2=&&22&2q33erpeeu3&&<$&6&+&1,3,rBSs&%<erzzCKAAPA&+->&==&=&%2=&&22&2q33erpeeu3&&",
"6<3ii36i&$&$&sho,jwcrrcc36i@+,mKKKFUUD#@&=&&&&&$*%&>2<<<3>-6<3ii36i&$&$&sho,jwcrrcc36i@+,mKKKFUUD#@&=&&&&&$*%&>2<<<3>-6<3ii36i&$",
"2i236%>2<6>o%sm65LTJDms,+>ne&+cJUUIEWTc+*&%=&==&$$=-<%=2&*&2i236%>2<6>o%sm65LTJDms,+>ne&+cJUUIEWTc+*&%=&==&$$=-<%=2&*&2i236%>2<6",
",63>>&=&6qi36sczvIRICxxVD>>Bs@lcCUWWWL@+%*&=%&$&<2><=$>-%><,63>>&=&6qi36sczvIRICxxVD>>Bs@lcCUWWWL@+%*&=%&$&<2><=$>-%><,63>>&=&6q",
"u2%>N3%$$eVDmcc,mTRJxvFYJ3+BVc3&5ARWWv =&=%$=<2=>2<&>-&$==3u2%>N3%$$eVDmcc,mTRJxvFYJ3+BVc3&5ARWWv =&=%$=<2=>2<&>-&$==3u2%>N3%$$e",
"i3>aM0>$6pVDcnmzzITACITKB,+isb,>>zLWRtX%=&&$223=&36&=&=*&&6i3>aM0>$6pVDcnmzzITACITKB,+isb,>>zLWRtX%=&&$223=&36&=&=*&&6i3>aM0>$6p",
">,ipeie>arpmCrvDcvDKJKTIc&@>u336+>DYC@$&&%=$%39$6hu&$==%&<=>,ipeie>arpmCrvDcvDKJKTIc&@>u336+>DYC@$&&%=$%39$6hu&$==%&<=>,ipeie>ar",
"33is,3eiq6pVDmDFKmvKIKJJp%=&%6-$$,nFB@<&=%&<&-<&2h<&&<&-=&333is,3eiq6pVDmDFKmvKIKJJp%=&%6-$$,nFB@<&=%&<&-<&2h<&&<&-=&333is,3eiq6",
"iq6<33633icBJFCJIIcxDKJc@$&=&=%&>&6nVh<$=&%&=%=-<6&&==&&&<qiq6<33633icBJFCJIIcxDKJc@$&=&=%&>&6nVh<$=&%&=%=-<6&&==&&&<qiq6<33633i",
"9333<32<ip63pmGDDFnrcFKt.$=&=%=&&>&6ii&$&===&=&<&==%<&*%=<39333<32<ip63pmGDDFnrcFKt.$=&=%=&&>&6ii&$&===&=&<&==%<&*%=<39333<32<ip",
"3<2e23q63e36<eccccBe,BJDBi@%=&=&%=%%&<=&=<&&=&=%=<-=&>==&&i3<2e23q63e36<eccccBe,BJDBi@%=&=&%=%%&<=&=<&&=&=%=<-=&>==&&i3<2e23q63e",
"2&<33<i26<q3&&6>>3q35scmVN>$&=%&=<&=<%&%&=&*&<=>==<&==2,=ii2&<33<i26<q3&&6>>3q35scmVN>$&=%&=<&=<%&%&=&*&<=>==<&==2,=ii2&<33<i26<",
"3=33362i8>u6$-$=&9<<<sc3,3=&==<=&==-&===&===%$2<2q&%&&<2,333=33362i8>u6$-$=&9<<<sc3,3=&==<=&==-&===&===%$2<2q&%&&<2,333=33362i8>",
"<23qpe366s22-&&=%&<=@&ip&+&<&&=&%&&>=&&=<&&=-&&&<8<&=3i2-23<23qpe366s22-&&=%&<=@&ip&+&<&&=&%&&>=&&=<&&=-&&&<8<&=3i2-23<23qpe366s",
"&&3690e3q96<=&==&==-<%<9$==&%<3>30>3<%%2=%=&>932@&&&q333<>2&&3690e3q96<=&==&==-<%<9$==&%<3>30>3<%%2=%=&>932@&&&q333<>2&&3690e3q9",
"=2326sii>$&=&=<$=&$<=&&3<&6&iNNsss3>>3<=<&>%ucevVs3=%<=&=3<=2326sii>$&=&=<$=&$<=&&3<&6&iNNsss3>>3<=<&>%ucevVs3=%<=&=3<=2326sii>$",
"<=>=3e,i3$-%=<2=&=-&&=%<eislce,,ist6q6>&=&=i6@rcmDBe>&&=<%-<=>=3e,i3$-%=<2=&=-&&=%<eislce,,ist6q6>&=&=i6@rcmDBe>&&=<%-<=>=3e,i3$",
"=&=><e-&2-%-=&=<&%=&<=&<a0scsrcr#rBccs6@>iepu6zmmmBc3&12====&=><e-&2-%-=&=<&%=&<=&<a0scsrcr#rBccs6@>iepu6zmmmBc3&12====&=><e-&2-",
"2=>->=<=&=<<-<=&==&=ei<&6@6s,wJYcwVcmcmDmpssp&cKvxmBcpe3&=22=>->=<=&=<<-<=&==&=ei<&6@6s,wJYcwVcmcmDmpssp&cKvxmBcpe3&=22=>->=<=&=",
">383=2-2==&*<&&<=&%6ue36a,35,rFIFcv57cFJFms5,6cFJBzcshs3=,=>383=2-2==&*<&&<=&%6ue36a,35,rFIFcv57cFJFms5,6cFJBzcshs3=,=>383=2-2==",
"=3p3=&2====-====2$&8e6iescBczvwwFJre#nFFCvCcczDmCDStrsie2-3=3p3=&2====-====2$&8e6iescBczvwwFJre#nFFCvCcczDmCDStrsie2-3=3p3=&2===",
"<ia>==2==-<=<-<&$3ii=3i63tmFPKc45Vc,2mJvCKKJCmDcrBBe>6ai>=<<ia>==2==-<=<-<&$3ii=3i63tmFPKc45Vc,2mJvCKKJCmDcrBBe>6ai>=<<ia>==2==-",
"<26<&2<&-<=2====>au3&=0qcvJKTIFn0>36e6cvKTYGCCDlrcs3&<2<<==<26<&2<&-<=2====>au3&=0qcvJKTIFn0>36e6cvKTYGCCDlrcs3&<2<<==<26<&2<&-<",
"32==2<==<<*=<=&&ii<&<6q6cDDITKmc>.ijce5pJKFJFAAxrrz6=&=&23&32==2<==<<*=<=&&ii<&<6q6cDDITKmc>.ijce5pJKFJFAAxrrz6=&=&23&32==2<==<<",
"3<<32&&=<-=-=-=%9q<&uss35cFITSwpse>icbstccvFKLTILPN3%33==233<<32&&=<-=-=-=%9q<&uss35cFITSwpse>icbstccvFKLTILPN3%33==233<<32&&=<-",
"u32<2==2=%==&=<-<6=6rBp,>6JTIAFKFJce,6pe3#OvKTWWTTA53ii3>=uu32<2==2=%==&=<-<6=6rBp,>6JTIAFKFJce,6pe3#OvKTWWTTA53ii3>=uu32<2==2=%",
"2<22=<=$=<-<=&<3yq6upsse5pvFFGPKCDCc3##6ss#DTTRWWTFr3eq33=32<22=<=$=<-<=&<3yq6upsse5pvFFGPKCDCc3##6ss#DTTRWWTFr3eq33=32<22=<=$=<",
"=2-<<-<&3ss=&=-=<0y3ici3nDpcCDFJvCmFJcicmSDmKTTRTIZcai3922==2-<<-<&3ss=&=-=<0y3ici3nDpcCDFJvCmFJcicmSDmKTTRTIZcai3922==2-<<-<&3s",
"=<<-=*&3as3%=%<<-326<uie9iieevDmCJFJDDDmmnrlCIUIPDcjr132222=<<-=*&3as3%=%<<-326<uie9iieevDmCJFJDDDmmnrlCIUIPDcjr132222=<<-=*&3as",
"2-<&3<&6pece%&=62<99<&%6<6e6ivcsCFJKvDDcrcmJDFIJCm6is&$<9u<2-<&3<&6pece%&=62<99<&%6<6e6ivcsCFJKvDDcrcmJDFIJCm6is&$<9u<2-<&3<&6pe",
"<<&<3rbnrmIYD>,hg&&eu>&=63s0sce>>mDmCKJADccVccVCee6eu3=3qi2<<&<3rbnrmIYD>,hg&&eu>&=63s0sce>>mDmCKJADccVccVCee6eu3=3qi2<<&<3rbnrm",
"u3266nHDCCKTJc>i60adeusqsssspii&,smCJIITTL5>%#ecp6ai623=233u3266nHDCCKTJc>i60adeusqsssspii&,smCJIITTL5>%#ecp6ai623=233u3266nHDCC",
"ippiBZSmZJKKKB&iespepBBecvBsu<3iieSJPIUWTTm,@>sbe<ei3ui3=23ippiBZSmZJKKKB&iespepBBecvBsu<3iieSJPIUWTTm,@>sbe<ei3ui3=23ippiBZSmZJ",
"isssvDBBSKFFDmpeci66tBBrimBp3&=epsvJKITREIKkesBc6e6,&3i1$<qisssvDBBSKFFDmpeci66tBBrimBp3&=epsvJKITREIKkesBc6e6,&3i1$<qisssvDBBSK",
"2133icBZFDFmmBmpVr33hccprsbj<$=0icsvFTTLIIJlrcni6DDnpeq33=32133icBZFDFmmBmpVr33hccprsbj<$=0icsvFTTLIIJlrcni6DDnpeq33=32133icBZFD",
"2&<3eibNSVBDFJmBSBisvccsncbs=&<8e3rVFKUKFIKBreccnCDFAs33si22&<3eibNSVBDFJmBSBisvccsncbs=&<8e3rVFKUKFIKBreccnCDFAs33si22&<3eibNSV",
"9u22u6q3pBVDLJmDBmBbbjbbNbs6><&<8&6VJFTKLIIKvtvDFmcsBBsescq9u22u6q3pBVDLJmDBmBbbjbbNbs6><&<8&6VJFTKLIIKvtvDFmcsBBsescq9u22u6q3pB",
"932<29<=>hBDDBVBcspnpaisgsu<9aaa<%+BIUTTTIKJFvcnDDv56cbppsf932<29<=>hBDDBVBcspnpaisgsu<9aaa<%+BIUTTTIKJFvcnDDv56cbppsf932<29<=>h",
"a6228=8==3sbscDciai893393<3iepBi-<*sIYTTTIFFJDp6iBbee6isspsa6228=8==3sbscDciai893393<3iepBi-<*sIYTTTIFFJDp6iBbee6isspsa6228=8==3",
"iu<99=-=:38039bbu03<<=<-i3de3sDepi>>DILIKFccDFs@,s3ih33aiu0iu<99=-=:38039bbu03<<=<-i3de3sDepi>>DILIKFccDFs@,s3ih33aiu0iu<99=-=:3",
"i9838=2=38<29u<ai=9q93=69cNi6bNBFN1>cJLFFNr6vDv5ic>6sNpci6qi9838=2=38<29u<ai=9q93=69cNi6bNBFN1>cJLFFNr6vDv5ic>6sNpci6qi9838=2=38",
"9ui8=2;8=2=9a983=<<aa02<jVBpi6cFJDBccmJFJDrevDJDJD6eppNBsii9ui8=2;8=2=9a983=<<aa02<jVBpi6cFJDBccmJFJDrevDJDJD6eppNBsii9ui8=2;8=2",
"ss03=-2=-=8-9qu=322808=2pNBVr6rDFSIPCwFFLF6rVDFKIDscs6eppisss03=-2=-=8-9qu=322808=2pNBVr6rDFSIPCwFFLF6rVDFKIDscs6eppisss03=-2=-=",
"cd3<2=2=<;2282990i922=<3=hBBDDcSDJKID5DGPB56NvDFDcBmpsi3iehcd3<2=2=<;2282990i922=<3=hBBDDcSDJKID5DGPB56NvDFDcBmpsi3iehcd3<2=2=<;",
"ssq8228<222829<22y29:&-=3issNDmDDAJKASZDZKr>ecnr6wpncpsp2<issq8228<222829<22y29:&-=3issNDmDDAJKASZDZKr>ecnr6wpncpsp2<issq8228<22",
"si333239u9<-<q822==39====3i6icbMDSADMJZvSVcrcDAcsciiiiss6=3si333239u9<-<q822==39====3i6icbMDSADMJZvSVcrcDAcsciiiiss6=3si333239u9",
"ui9qu3qisu9<=-u=<=3iq3=2=23=1espcccccBmcmmcrlMJZmmc3%3qu23uui9qu3qisu9<=-u=<=3iq3=2=23=1espcccccBmcmmcrlMJZmmc3%3qu23uui9qu3qisu",
"9q3epi3iip3-2=21-33u9-<u2==2==&=322>0svmmmDMZBCcnN2$22<2<339q3epi3iip3-2=21-33u9-<u2==2==&=322>0svmmmDMZBCcnN2$22<2<339q3epi3iip",
"ie30es3eiu3=<=12&2ii<=&<92&2>21=&=>&>ssNvmmDFZrrcc<&<q6eaiiie30es3eiu3=<=12&2ii<=&<92&2>21=&=>&>ssNvmmDFZrrcc<&<q6eaiiie30es3eiu",
"i0qeie3-123=-2=2%29s3223-22<-23=<qu0=%6mccDDmBptspt3<iaistpi0qeie3-123=-2=2%29s3223-22<-23=<qu0=%6mccDDmBptspt3<iaistpi0qeie3-12",
"ee36a33<=233>==&2<3363e23uq=<3u&2u32<&>ucnvczcnvpssi>3seepsee36a33<=233>==&2<3363e23uq=<3u&2u32<&>ucnvczcnvpssi>3seepsee36a33<=2",
"ieiqis2&32392=%==2-2qiieiq<&<2223i3=&&*>pipescssrcr63qipptpieiqis2&32392=%==2-2qiieiq<&<2223i3=&&*>pipescssrcr63qipptpieiqis2&32",
"sp66sr3<3e922&&&=&>3iei333=>32363qe<>=&<2rtpcs5eieq933eeeptsp66sr3<3e922&&&=&>3iei333=>32363qe<>=&<2rtpcs5eieq933eeeptsp66sr3<3e",
"speape332eq6&=&<&=&263ep333<>33pq3ee3&$$$6pnpeie6333,26qieispeape332eq6&=&<&=&263ep333<>33pq3ee3&$$$6pnpeie6333,26qieispeape332e",
"pii6e293=293<=*=&>eBe<iiiq92<33q3epnc3>2<3smne333333233iepspii6e293=293<=*=&>eBe<iiiq92<33q3epnc3>2<3smne333333233iepspii6e293=2",
"q332<<&<&<22<&>&%6FPc@22323q623elCDmceer63pBcru,232333ur36eq332<<&<&<22<&>&%6FPc@22323q623elCDmceer63pBcru,232333ur36eq332<<&<&<",
"6>2322<-=<>>&$39+cAAr%%222233>zDFKKDcrra3>snr6e2>2232>3iq6u6>2322<-=<>>&$39+cAAr%%222233>zDFKKDcrra3>snr6e2>2232>3iq6u6>2322<-=<",
"q2<<2<&=&,8&<20q,cVm3&&2>2>=&,NFFKKDle3e3>,h32232&33222>3isq2<<2<&=&,8&<20q,cVm3&&2>2>=&,NFFKKDle3e3>,h32232&33222>3isq2<<2<&=&,"
};
